<?xml version="1.0" encoding="utf-8"?>
<!-- Generator: Adobe Illustrator 24.2.1, SVG Export Plug-In . SVG Version: 6.00 Build 0)  -->
<svg version="1.1" id="Слой_1" xmlns="http://www.w3.org/2000/svg" xmlns:xlink="http://www.w3.org/1999/xlink" x="0px" y="0px"
	 viewBox="0 0 1872 1721.74" style="enable-background:new 0 0 1872 1721.74;" xml:space="preserve">
<style type="text/css">
	.st0{fill:#FFFFFF;}
	.st1{fill:url(#SVGID_1_);}
</style>
<path class="st0" d="M1509.45,1491.51H513.04c-28.49,0-51.8-23.31-51.8-51.8V443.3c0-28.49,23.31-51.8,51.8-51.8h996.41
	c28.49,0,51.8,23.31,51.8,51.8v996.41C1561.25,1468.2,1537.94,1491.51,1509.45,1491.51z"/>
<linearGradient id="SVGID_1_" gradientUnits="userSpaceOnUse" x1="1011.2464" y1="594.1329" x2="1011.2464" y2="1288.8816">
	<stop  offset="0" style="stop-color:#FB354E"/>
	<stop  offset="0.9802" style="stop-color:#561F47"/>
</linearGradient>
<path class="st1" d="M1452.57,910.11c-23.72-13.21-55.55-13.52-74.24-9.15c-1.84,0.43-3.26,0.81-4.19,1.05
	c-18.23,4.84-31.87,13.44-40.72,20.31c-2.49-12.38-6.64-24.73-12.87-36.8c-23.44-45.42-65.79-66.22-70.2-68.31
	c-52.95-25.13-104.12-12.05-116.97-8.38c-4.12-25.78-15.33-73.71-50.42-119.41c-13.3-17.32-81.17-105.7-185.54-94.27
	c-71.9,7.88-134.59,60.21-163.36,134.08c-29.17-0.23-101.56,3.16-154.34,51.74c-103.09,94.88-24.52,278.96-21.03,286.97
	c65.32,150.03,244.07,229.27,399.63,220.25c126.3-7.32,263.78-74.35,334.19-196.31c26.54-45.97,37.85-89.87,43.13-121
	c17.31-13.87,38.08-19.73,55.14-14.55c29.42,8.95,34.64,46.76,31.97,67.64c-4.82,37.76-42.13,72.46-93.59,85.85l-2.64,20.54
	c99.32-19.91,166.86-81.08,169.13-137.71C1496.69,966.93,1484.8,928.06,1452.57,910.11z M1174.14,930.66
	c-1.97-4.21-8.34-16.38-22.18-23.04c-22.73-10.93-44.69,3.07-46.39,4.19c-2.09-3.58-20.79-34.4-56.47-37.71
	c-23.33-2.16-40.7,8.66-46.39,12.57c-24.77-51.79-78.94-78.05-127.06-64.94c-37.22,10.14-66.47,42.66-76.64,83.8
	c-18.22-16.08-42.76-20.2-62.52-10.47c-19.55,9.62-26.7,29-28.23,33.52h-66.55c5.24-2.27,11.31-4.48,18.15-6.28
	c11.52-3.04,21.88-4.04,30.25-4.19c1.2-5.93,6.64-29.32,28.23-46.09c23.59-18.32,49.24-15.38,54.45-14.66
	c10.08-68.26,63.06-118.59,123.02-121.51c47.63-2.32,93.74,25.57,118.99,71.23c8.94-1.4,34.1-4.06,60.5,10.47
	c35.78,19.71,46.5,55.97,48.4,62.85c4.29-0.48,21.86-1.92,38.32,10.47c13.85,10.43,18.72,24.5,20.17,29.33
	c3.53-0.36,7.61-0.47,12.1,0c12.81,1.33,22.51,6.62,28.23,10.47H1174.14z"/>
</svg>
